<?xml version="1.0" encoding="utf-8"?>
<!-- Generator: Adobe Illustrator 25.2.1, SVG Export Plug-In . SVG Version: 6.00 Build 0)  -->
<svg version="1.1" id="Layer_1" xmlns="http://www.w3.org/2000/svg" xmlns:xlink="http://www.w3.org/1999/xlink" x="0px" y="0px"
	 viewBox="0 0 148 36" style="enable-background:new 0 0 148 36;" xml:space="preserve">
<style type="text/css">
	.st0{fill:#424B56;}
</style>
<g>
	<g>
		<path class="st0" d="M143.4,9.7h-2.8v-4h2.9c1.3,0,2.3,0.8,2.3,2.1C145.8,8.9,145,9.7,143.4,9.7 M147.9,14.2
			c-0.8-1.1-2.1-2.7-2.6-3.5c1.2-0.5,2.1-1.6,2.1-3c0-1.8-1.5-3.5-3.8-3.5h-4l0,0c-0.2,0-0.4,0.3-0.4,0.5c0,0.2,0,9.6,0,9.8
			c0,0.1,0,0.2,0.1,0.3c0.1,0.2,0.3,0.2,0.4,0.2h0.7c0,0,0.2,0,0.4-0.2c0.1-0.1,0.1-0.2,0.1-0.3v-3.5h3l2.7,3.7
			c0.1,0.1,0.3,0.2,0.5,0.2h0.6c0,0,0.5-0.1,0.5-0.4C148,14.5,147.9,14.3,147.9,14.2 M134.7,14.2c0-0.1,0-0.2-0.1-0.4
			c-0.2-0.1-0.3-0.1-0.4-0.1c0,0,0,0-0.1,0h-5.7v-3.3h5.6c0.3,0,0.5-0.5,0.5-0.6V9.4c0-0.1-0.2-0.5-0.5-0.5h-5.5V5.7h5.6
			c0.1,0,0.3,0,0.4-0.2c0.1-0.2,0.1-0.3,0.1-0.4V4.8c0-0.1,0-0.2-0.1-0.4c-0.2-0.1-0.3-0.1-0.4-0.1h-6.8c0,0-0.1,0-0.3,0.1
			c-0.2,0.2-0.1,0.3-0.1,0.3v9.8c0,0.1,0,0.2,0.1,0.3c0.1,0.2,0.3,0.2,0.4,0.2h6.8c0.1,0,0.2,0,0.3-0.1c0.2-0.2,0.1-0.3,0.1-0.4
			V14.2z M119,8.8l3.5-3.8c0.1-0.1,0.1-0.2,0.1-0.3c0-0.3-0.2-0.5-0.5-0.5h-0.6c-0.2,0-0.4,0.1-0.5,0.2l-5.2,5.8V4.8
			c0-0.1,0-0.2-0.1-0.4c-0.1-0.1-0.3-0.2-0.4-0.2h-0.6c-0.1,0-0.2,0-0.4,0.1c-0.1,0.1-0.1,0.3-0.1,0.4v9.8c0,0.1,0,0.2,0.1,0.3
			c0.1,0.1,0.3,0.1,0.4,0.1h0.5c0.1,0,0.2,0,0.4-0.1c0.2-0.1,0.1-0.3,0.1-0.4v-2.2l2.2-2.4l3.7,4.7c0.1,0.1,0.2,0.2,0.6,0.3h0.7
			c0.2,0,0.5-0.2,0.5-0.4c0-0.2,0-0.2-0.1-0.3L119,8.8z M105.5,9.7h-2.8v-4h2.8c1.3,0,2.3,0.8,2.3,2.1
			C107.9,8.9,107.2,9.7,105.5,9.7 M107.4,10.8c1.2-0.5,2.1-1.6,2.1-3c0-1.8-1.5-3.5-3.8-3.5h-4l0,0c-0.1,0-0.4,0.3-0.4,0.5v9.8
			c0,0.1,0,0.2,0.1,0.3c0.1,0.2,0.3,0.2,0.4,0.2h0.7c0,0,0.2,0,0.4-0.2c0.1-0.1,0.1-0.2,0.1-0.3v-3.5h3l2.7,3.7
			c0.1,0.1,0.3,0.2,0.5,0.2h0.6c0.1,0,0.5-0.1,0.5-0.4c0-0.1-0.1-0.3-0.1-0.4C109.1,13.1,107.9,11.5,107.4,10.8 M90,11.2
			c0.5-0.9,1.5-3,2.2-4.5c0,0,0,0,0,0c0,0,0,0,0,0c0.7,1.5,1.8,3.6,2.2,4.5H90z M92.7,4.3c0,0-0.2-0.3-0.5-0.3
			c-0.3,0-0.4,0.3-0.4,0.3c-1,1.9-4.5,8.9-5.1,10c0,0.1-0.1,0.1-0.1,0.3c0,0.4,0.5,0.4,0.5,0.4h0.5c0.3,0,0.6-0.2,0.6-0.3l1.1-2.1
			h5.8l1.1,2.1c0,0.1,0.3,0.3,0.5,0.3c0,0,0,0,0,0h0.7c0.1,0,0.5-0.1,0.5-0.4c0-0.1-0.1-0.2-0.1-0.3C97.2,13.1,93.7,6.3,92.7,4.3
			 M81.4,9.7c-0.9,0-2.2,0-2.9,0v-4h2.8c1.3,0,2.3,0.7,2.3,2C83.6,9.1,82.7,9.7,81.4,9.7 M81.4,4.3h-4h0c-0.1,0-0.2,0-0.3,0.1
			c-0.1,0.1-0.1,0.2-0.1,0.4v9.8c0,0.1,0,0.2,0.1,0.3c0.1,0.1,0.3,0.1,0.3,0.1h0.7h0c0.1,0,0.2,0,0.4-0.2c0.1-0.2,0.1-0.2,0.1-0.3
			v-3.4h2.6c2.4,0,4.1-1.3,4.1-3.4C85.2,5.6,83.4,4.3,81.4,4.3 M64.8,4.3h-0.6c-0.2,0-0.4,0.2-0.5,0.3c-0.5,0.8-2.4,3.7-3.1,4.8
			c-0.7-1.1-2.6-4-3.1-4.8c0-0.1-0.4-0.3-0.5-0.3h-0.6c-0.1,0-0.5,0-0.6,0.4c0,0.1,0.1,0.2,0.1,0.2c0.8,1.2,3.5,5.4,3.9,6v3.5
			c0,0.1,0,0.2,0.1,0.4C60,15,60.2,15,60.3,15h0h0.6c0.1,0,0.2,0,0.4-0.1c0.1-0.2,0.1-0.3,0.1-0.4V11c0.4-0.6,3-4.6,3.9-6
			c0-0.1,0.1-0.1,0.1-0.3C65.3,4.3,64.9,4.3,64.8,4.3 M49.4,13.6h-3.5v-3.3h3.5c1.5,0,2.3,0.7,2.3,1.7C51.6,13.1,51,13.6,49.4,13.6
			 M45.9,5.7h3c1.4,0,2.1,0.7,2.2,1.6c-0.1,1.2-0.4,1.5-1.9,1.6h-3.3V5.7z M51.7,9.5c0.6-0.5,1-1.2,1-2.2c0-1.9-1.8-3-3.8-3h-4
			c-0.1,0-0.2,0-0.4,0.1c-0.1,0.1-0.1,0.3-0.1,0.4v9.8c0,0.2,0.3,0.5,0.5,0.5h4.7c2.3,0,3.7-1,3.8-3C53.2,10.9,52.6,10,51.7,9.5
			 M35.6,9.7h-2.8v-4h2.9C37,5.8,38,6.5,38,7.8C38,8.9,37.3,9.7,35.6,9.7 M37.5,10.8c1.2-0.5,2.1-1.6,2.1-3c0-1.8-1.5-3.5-3.8-3.5
			h-4c-0.1,0-0.2,0-0.3,0.1c-0.1,0.1-0.1,0.2-0.1,0.4v9.8c0,0.1,0,0.2,0.1,0.3c0.1,0.2,0.3,0.2,0.4,0.2h0.6h0c0.1,0,0.2,0,0.3-0.1
			c0.1-0.2,0.1-0.3,0.1-0.3v-3.4h3l2.7,3.7c0.1,0.1,0.3,0.2,0.5,0.2h0.7c0.1,0,0.5-0.1,0.5-0.4c0-0.1-0.1-0.3-0.1-0.4
			C39.3,13.1,38,11.5,37.5,10.8 M20,11.2c0.5-0.9,1.5-3,2.3-4.5c0,0,0,0,0,0c0,0,0,0,0,0c0.7,1.5,1.7,3.6,2.2,4.5H20z M22.7,4.3
			c0,0-0.1-0.3-0.4-0.3c-0.3,0-0.4,0.3-0.4,0.3c-1,1.9-4.5,8.9-5.1,10c0,0.1-0.1,0.1-0.1,0.3c0.1,0.4,0.5,0.4,0.6,0.4h0.5
			c0.3,0,0.5-0.2,0.6-0.3l1-2.1h5.9l1,2.1c0,0.1,0.3,0.3,0.5,0.3c0,0,0,0,0,0h0.7c0.1,0,0.5-0.1,0.5-0.4c0-0.1,0-0.2-0.1-0.3
			C27.2,13.1,23.7,6.3,22.7,4.3 M14.7,4.3h-0.5c-0.1,0-0.5,0.1-0.5,0.3L10.8,12L8.1,4.6c0-0.2-0.4-0.3-0.5-0.3h0
			c-0.1,0-0.4,0.2-0.4,0.3L4.5,12c-0.7-1.7-2.1-5.2-2.9-7.3c0-0.2-0.3-0.4-0.5-0.4H0.4c0,0-0.1,0-0.3,0.1C0,4.4,0,4.6,0,4.7
			C0,4.8,0,4.9,0.1,5l4,10c0.2,0.2,0.4,0.3,0.4,0.3h0c0,0,0.4,0,0.5-0.3c0.8-2.1,2-5.5,2.6-7.1C8.2,9.5,9.5,13,10.2,15
			c0.1,0.2,0.4,0.3,0.5,0.3c0,0,0.4-0.1,0.5-0.3c1.3-3.3,2.9-7.4,4-10c0-0.1,0-0.1,0.1-0.2C15.2,4.4,14.7,4.3,14.7,4.3"/>
	</g>
</g>
<g>
	<path class="st0" d="M14.9,31.8v-8.5h6v1.6h-4.2v1.8h4.1v1.6h-4.1v1.9H21v1.6H14.9z"/>
	<path class="st0" d="M27.9,31.8v-3.5l-3.3-5h2.1l2.1,3.4l2.1-3.4H33l-3.3,5v3.5H27.9z"/>
	<path class="st0" d="M36.8,31.8v-8.5h6v1.6h-4.2v1.8h4.1v1.6h-4.1v1.9h4.2v1.6H36.8z"/>
	<path class="st0" d="M53.9,31.8L52.4,26l-1.5,5.8H49l-2.4-8.5h2l1.5,6.1l1.6-6.1h1.4l1.6,6.1l1.5-6.1h2l-2.4,8.5H53.9z"/>
	<path class="st0" d="M62.2,31.8v-8.5h6v1.6H64v1.8h4.1v1.6H64v1.9h4.2v1.6H62.2z"/>
	<path class="st0" d="M78.6,31.8l-0.5-1.4h-3.7l-0.5,1.4h-2.1l3.3-8.5h2.3l3.3,8.5H78.6z M76.3,25.1l-1.3,3.7h2.7L76.3,25.1z"/>
	<path class="st0" d="M89.4,31.8l-1.7-3h-1.3v3h-1.8v-8.5h4c1.8,0,2.9,1.2,2.9,2.7c0,1.5-0.9,2.3-1.9,2.5l1.9,3.2H89.4z M89.6,26
		c0-0.7-0.6-1.1-1.3-1.1h-1.9v2.3h1.9C89,27.2,89.6,26.7,89.6,26z"/>
	<path class="st0" d="M105.9,30.5h-3.5l-0.4,1.3h-2.4l3.2-8.5h2.8l3.2,8.5h-2.4L105.9,30.5z M102.9,28.7h2.4l-1.2-3.5L102.9,28.7z"
		/>
	<path class="st0" d="M116,26.4l-1,4.2c-0.1,0.3-0.1,0.5,0.2,0.5c0.3,0,1-0.8,1.3-1.2l0.3,0.3c-0.5,0.9-1.3,1.7-2.3,1.7
		c-0.6,0-0.8-0.5-0.6-1.2l1.1-4.3h-1l0.1-0.5h1l0.3-1.1l1.1-0.6l0.2,0.1l-0.4,1.6h1.4l-0.1,0.5H116z"/>
	<path class="st0" d="M123.3,27.9c0,0.6-0.2,1.6-0.7,2.5c-0.6,0.9-1.4,1.5-2.8,1.5c-1.5,0-2.3-0.9-2.3-2.2c0-1.2,0.8-4,3.6-4
		C122.1,25.8,123.3,26.2,123.3,27.9z M118.8,30.3c0,0.8,0.4,1.2,1.1,1.2c1.6,0,2.2-3.1,2.2-4c0-0.7-0.2-1.2-1-1.2
		C119.6,26.3,118.8,29,118.8,30.3z"/>
	<path class="st0" d="M128.3,30l3.6-4.8h-3.6v-1.9h6.5V25l-3.7,4.8h3.7v1.9h-6.6V30z"/>
</g>
</svg>
